<svg width="140" height="41" viewBox="0 0 140 41" fill="none" xmlns="http://www.w3.org/2000/svg">
<g clip-path="url(#clip0_473_231)">
<mask id="mask0_473_231" style="mask-type:luminance" maskUnits="userSpaceOnUse" x="-1" y="-1" width="30" height="30">
<path d="M28.4619 15.3998C29.0946 7.55275 23.2463 0.678495 15.3992 0.0457548C7.55209 -0.586985 0.677832 5.2614 0.0450914 13.1085C-0.587649 20.9556 5.26073 27.8298 13.1078 28.4626C20.9549 29.0953 27.8292 23.2469 28.4619 15.3998Z" fill="white"/>
</mask>
<g mask="url(#mask0_473_231)">
<path d="M17.7716 0.574673C18.0881 -1.36866 16.7693 -3.2006 14.826 -3.51709C12.8826 -3.83358 11.0507 -2.51477 10.7342 -0.571443C10.4177 1.37189 11.7365 3.20383 13.6798 3.52032C15.6232 3.83681 17.4551 2.518 17.7716 0.574673Z" fill="#C80E43"/>
<path d="M16.7746 31.0292C18.1668 29.6369 18.1668 27.3797 16.7746 25.9874C15.3823 24.5952 13.125 24.5952 11.7328 25.9874C10.3406 27.3797 10.3406 29.6369 11.7328 31.0292C13.125 32.4214 15.3823 32.4214 16.7746 31.0292Z" fill="#C80E43"/>
<path fill-rule="evenodd" clip-rule="evenodd" d="M5.34614 -1.17757C7.04967 -2.16292 9.23008 -1.57688 10.2154 0.126655C11.2008 1.83019 10.6147 4.0106 8.9112 4.99594C7.20767 5.98129 5.02726 5.39526 4.04191 3.69172C3.05657 1.98819 3.6426 -0.192219 5.34614 -1.17757Z" fill="#C80E43"/>
<path fill-rule="evenodd" clip-rule="evenodd" d="M19.601 23.5136C21.3046 22.5282 23.485 23.1143 24.4703 24.8178C25.4557 26.5214 24.8696 28.7018 23.1661 29.6871C21.4626 30.6725 19.2821 30.0864 18.2968 28.3829C17.3114 26.6794 17.8975 24.4989 19.601 23.5136Z" fill="#C80E43"/>
<path fill-rule="evenodd" clip-rule="evenodd" d="M-1.17781 23.1632C-2.16316 21.4596 -1.57712 19.2792 0.126411 18.2939C1.82994 17.3085 4.01035 17.8946 4.9957 19.5981C5.98105 21.3016 5.39501 23.482 3.69148 24.4674C1.98794 25.4527 -0.192463 24.8667 -1.17781 23.1632Z" fill="#C80E43"/>
<path fill-rule="evenodd" clip-rule="evenodd" d="M23.5136 8.90852C22.5282 7.20499 23.1143 5.02458 24.8178 4.03923C26.5214 3.05388 28.7018 3.63992 29.6871 5.34345C30.6725 7.04698 30.0864 9.22739 28.3829 10.2127C26.6794 11.1981 24.4989 10.6121 23.5136 8.90852Z" fill="#C80E43"/>
<path fill-rule="evenodd" clip-rule="evenodd" d="M-1.17781 5.34628C-0.192463 3.63987 1.98794 3.0567 3.69148 4.04205C5.39501 5.0274 5.98105 7.20494 4.9957 8.91134C4.01035 10.6177 1.83282 11.198 0.126411 10.2127C-1.57712 9.22734 -2.16316 7.04981 -1.17781 5.3434V5.34628Z" fill="#C80E43"/>
<path fill-rule="evenodd" clip-rule="evenodd" d="M23.5136 19.6008C24.4989 17.8972 26.6765 17.3112 28.3829 18.2966C30.0864 19.2819 30.6725 21.4594 29.6871 23.1658C28.7018 24.8694 26.5242 25.4554 24.8178 24.4701C23.1143 23.4847 22.5282 21.3072 23.5136 19.6008Z" fill="#C80E43"/>
<path fill-rule="evenodd" clip-rule="evenodd" d="M5.34614 29.6871C3.6426 28.7018 3.05657 26.5242 4.04191 24.8178C5.02726 23.1143 7.2048 22.5282 8.9112 23.5136C10.6147 24.4989 11.2008 26.6765 10.2154 28.3829C9.23008 30.0864 7.05254 30.6725 5.34614 29.6871Z" fill="#C80E43"/>
<path fill-rule="evenodd" clip-rule="evenodd" d="M19.601 4.99594C17.8975 4.0106 17.3114 1.83306 18.2968 0.126655C19.2821 -1.57688 21.4597 -2.16292 23.1661 -1.17757C24.8696 -0.192219 25.4557 1.98532 24.4703 3.69172C23.485 5.39526 21.3074 5.98129 19.601 4.99594Z" fill="#C80E43"/>
<path fill-rule="evenodd" clip-rule="evenodd" d="M-3.56543 14.2546C-3.56543 12.2868 -1.96819 10.6924 -0.000362313 10.6924C1.96746 10.6924 3.56471 12.2868 3.56471 14.2575C3.56471 16.2281 1.96746 17.8196 -0.000362313 17.8196C-1.96819 17.8196 -3.56543 16.2253 -3.56543 14.2546Z" fill="#C80E43"/>
<path d="M31.0294 16.7765C32.4217 15.3843 32.4217 13.127 31.0294 11.7347C29.6372 10.3425 27.3799 10.3425 25.9877 11.7347C24.5954 13.127 24.5954 15.3843 25.9877 16.7765C27.3799 18.1687 29.6372 18.1687 31.0294 16.7765Z" fill="#C80E43"/>
<path fill-rule="evenodd" clip-rule="evenodd" d="M14.2535 3.56519C15.4342 3.56519 16.3908 4.52181 16.3908 5.7025C16.3908 6.8832 15.4342 7.83982 14.2535 7.83982C13.0728 7.83982 12.1162 6.8832 12.1162 5.7025C12.1162 4.52181 13.0728 3.56519 14.2535 3.56519Z" fill="#C80E43"/>
<path fill-rule="evenodd" clip-rule="evenodd" d="M14.2535 20.6694C15.4342 20.6694 16.3908 21.6261 16.3908 22.8068C16.3908 23.9874 15.4342 24.9441 14.2535 24.9441C13.0728 24.9441 12.1162 23.9874 12.1162 22.8068C12.1162 21.6261 13.0728 20.6694 14.2535 20.6694Z" fill="#C80E43"/>
<path fill-rule="evenodd" clip-rule="evenodd" d="M8.90799 4.99574C9.93068 4.40396 11.2378 4.75443 11.8296 5.77713C12.4213 6.79982 12.0709 8.10692 11.0482 8.6987C10.0255 9.29049 8.71839 8.94001 8.1266 7.91732C7.53482 6.89462 7.88529 5.58753 8.90799 4.99574Z" fill="#C80E43"/>
<path fill-rule="evenodd" clip-rule="evenodd" d="M17.4627 19.8104C18.4854 19.2187 19.7925 19.5691 20.3842 20.5918C20.976 21.6145 20.6256 22.9216 19.6029 23.5134C18.5802 24.1052 17.2731 23.7547 16.6813 22.732C16.0895 21.7093 16.44 20.4022 17.4627 19.8104Z" fill="#C80E43"/>
<path fill-rule="evenodd" clip-rule="evenodd" d="M4.99477 19.6009C4.40298 18.5782 4.75346 17.2711 5.77615 16.6793C6.79885 16.0876 8.10594 16.438 8.69773 17.4607C9.28951 18.4834 8.93904 19.7905 7.91634 20.3823C6.89365 20.9741 5.58655 20.6236 4.99477 19.6009Z" fill="#C80E43"/>
<path fill-rule="evenodd" clip-rule="evenodd" d="M19.8092 11.0487C19.2174 10.026 19.5679 8.71887 20.5906 8.12709C21.6133 7.53531 22.9204 7.88578 23.5122 8.90848C24.104 9.93117 23.7535 11.2383 22.7308 11.83C21.7081 12.4218 20.401 12.0714 19.8092 11.0487Z" fill="#C80E43"/>
<path fill-rule="evenodd" clip-rule="evenodd" d="M4.99477 8.90848C5.58655 7.88578 6.89365 7.53531 7.91634 8.12709C8.93904 8.71887 9.28951 10.026 8.69773 11.0487C8.10594 12.0714 6.79885 12.4218 5.77615 11.83C4.75346 11.2383 4.40298 9.93117 4.99477 8.90848Z" fill="#C80E43"/>
<path fill-rule="evenodd" clip-rule="evenodd" d="M19.8092 17.4634C20.401 16.4407 21.7081 16.0902 22.7308 16.682C23.7535 17.2738 24.104 18.5809 23.5122 19.6036C22.9204 20.6263 21.6133 20.9768 20.5906 20.385C19.5679 19.7932 19.2174 18.4861 19.8092 17.4634Z" fill="#C80E43"/>
<path fill-rule="evenodd" clip-rule="evenodd" d="M8.90799 23.5134C7.88529 22.9216 7.53482 21.6145 8.1266 20.5918C8.71839 19.5691 10.0255 19.2187 11.0482 19.8104C12.0709 20.4022 12.4213 21.7093 11.8296 22.732C11.2378 23.7547 9.93068 24.1052 8.90799 23.5134Z" fill="#C80E43"/>
<path fill-rule="evenodd" clip-rule="evenodd" d="M17.4627 8.6987C16.44 8.10692 16.0895 6.79982 16.6813 5.77713C17.2731 4.75443 18.5802 4.40396 19.6029 4.99574C20.6256 5.58753 20.976 6.89462 20.3842 7.91732C19.7925 8.94001 18.4854 9.29049 17.4627 8.6987Z" fill="#C80E43"/>
<path fill-rule="evenodd" clip-rule="evenodd" d="M3.56152 14.2547C3.56152 13.0741 4.51815 12.1174 5.69884 12.1174C6.87954 12.1174 7.83616 13.0741 7.83616 14.2547C7.83616 15.4354 6.87954 16.3921 5.69884 16.3921C4.51815 16.3921 3.56152 15.4354 3.56152 14.2547Z" fill="#C80E43"/>
<path fill-rule="evenodd" clip-rule="evenodd" d="M20.6689 14.2547C20.6689 13.0741 21.6256 12.1174 22.8063 12.1174C23.987 12.1174 24.9436 13.0741 24.9436 14.2547C24.9436 15.4354 23.987 16.3921 22.8063 16.3921C21.6256 16.3921 20.6689 15.4354 20.6689 14.2547Z" fill="#C80E43"/>
<path fill-rule="evenodd" clip-rule="evenodd" d="M14.2539 7.83984C14.9462 7.83984 15.5093 8.38854 15.5351 9.07225C15.1243 8.9717 14.6963 8.91712 14.2539 8.91712C13.8115 8.91712 13.3835 8.9717 12.9727 9.07225C12.9985 8.38566 13.5616 7.83984 14.2539 7.83984Z" fill="#C80E43"/>
<path fill-rule="evenodd" clip-rule="evenodd" d="M15.5351 19.437C15.5093 20.1236 14.9462 20.6694 14.2539 20.6694C13.5616 20.6694 12.9985 20.1207 12.9727 19.437C13.3835 19.5376 13.8115 19.5921 14.2539 19.5921C14.6963 19.5921 15.1243 19.5376 15.5351 19.437Z" fill="#C80E43"/>
<path fill-rule="evenodd" clip-rule="evenodd" d="M11.0473 8.69871C11.6477 8.35399 12.409 8.54359 12.7738 9.12675C11.9292 9.37093 11.1708 9.81621 10.5532 10.4109C10.2315 9.80472 10.4469 9.04632 11.0473 8.70159V8.69871Z" fill="#C80E43"/>
<path fill-rule="evenodd" clip-rule="evenodd" d="M17.953 18.1013C18.2748 18.7074 18.0593 19.4658 17.4589 19.8105C16.8585 20.1553 16.0973 19.9657 15.7324 19.3825C16.577 19.1383 17.3354 18.693 17.953 18.0984V18.1013Z" fill="#C80E43"/>
<path fill-rule="evenodd" clip-rule="evenodd" d="M8.69758 17.4636C8.35285 16.8632 8.54532 16.1019 9.12561 15.7371C9.3698 16.5816 9.81507 17.34 10.4097 17.9577C9.80358 18.2794 9.04518 18.064 8.70045 17.4636H8.69758Z" fill="#C80E43"/>
<path fill-rule="evenodd" clip-rule="evenodd" d="M18.1005 10.5547C18.7067 10.2329 19.4651 10.4484 19.8098 11.0488C20.1545 11.6492 19.9649 12.4105 19.3818 12.7753C19.1376 11.9307 18.6923 11.1723 18.0977 10.5547H18.1005Z" fill="#C80E43"/>
<path fill-rule="evenodd" clip-rule="evenodd" d="M8.69752 11.0487C9.04225 10.4483 9.80065 10.2357 10.4068 10.5546C9.81214 11.1722 9.36687 11.9307 9.12268 12.7752C8.54239 12.4104 8.34992 11.6491 8.69465 11.0487H8.69752Z" fill="#C80E43"/>
<path fill-rule="evenodd" clip-rule="evenodd" d="M19.3809 15.7371C19.9611 16.1019 20.1536 16.8632 19.8089 17.4636C19.4642 18.064 18.7058 18.2766 18.0996 17.9577C18.6914 17.34 19.1395 16.5816 19.3837 15.7371H19.3809Z" fill="#C80E43"/>
<path fill-rule="evenodd" clip-rule="evenodd" d="M11.048 19.8106C10.4476 19.4659 10.235 18.7075 10.5539 18.1013C11.1715 18.696 11.9299 19.1413 12.7745 19.3854C12.4097 19.9657 11.6484 20.1582 11.048 19.8135V19.8106Z" fill="#C80E43"/>
<path fill-rule="evenodd" clip-rule="evenodd" d="M15.7363 9.12684C16.1012 8.54654 16.8624 8.35407 17.4628 8.6988C18.0632 9.04353 18.2758 9.80193 17.957 10.4081C17.3393 9.81629 16.5809 9.36815 15.7363 9.12396V9.12684Z" fill="#C80E43"/>
<path fill-rule="evenodd" clip-rule="evenodd" d="M7.83887 14.2546C7.83887 13.5623 8.38756 12.9992 9.07127 12.9734C8.97073 13.3842 8.91614 13.8122 8.91614 14.2546C8.91614 14.697 8.97073 15.1251 9.07127 15.5359C8.38469 15.51 7.83887 14.947 7.83887 14.2546Z" fill="#C80E43"/>
<path fill-rule="evenodd" clip-rule="evenodd" d="M19.4365 12.9734C20.1231 12.9992 20.6689 13.5623 20.6689 14.2546C20.6689 14.947 20.1202 15.51 19.4365 15.5359C19.5371 15.1251 19.5916 14.697 19.5916 14.2546C19.5916 13.8122 19.5371 13.3842 19.4365 12.9734Z" fill="#C80E43"/>
<path fill-rule="evenodd" clip-rule="evenodd" d="M14.2538 9.52051C15.5609 9.52051 16.7445 10.052 17.6005 10.908C18.4566 11.7641 18.9881 12.9477 18.9881 14.2548C18.9881 15.5619 18.4566 16.7454 17.6005 17.6015C16.7445 18.4576 15.5609 18.9891 14.2538 18.9891C12.9467 18.9891 11.7631 18.4576 10.9071 17.6015C10.051 16.7454 9.51953 15.5619 9.51953 14.2548C9.51953 12.9477 10.051 11.7641 10.9071 10.908C11.7631 10.052 12.9467 9.52051 14.2538 9.52051ZM17.1869 11.3246C16.4371 10.5748 15.4 10.1094 14.2538 10.1094C13.1076 10.1094 12.0734 10.5748 11.3207 11.3246C10.571 12.0744 10.1056 13.1114 10.1056 14.2548C10.1056 15.3981 10.571 16.4352 11.3207 17.185C12.0705 17.9348 13.1076 18.4001 14.2509 18.4001C15.3943 18.4001 16.4313 17.9348 17.184 17.185C17.9338 16.4352 18.3992 15.3981 18.3992 14.2548C18.3992 13.1114 17.9338 12.0744 17.184 11.3246H17.1869Z" fill="#C80E43"/>
</g>
<path fill-rule="evenodd" clip-rule="evenodd" d="M95.5673 27.7335C92.5222 27.6645 91.2179 25.9236 91.2179 22.5941V12.8958C91.2179 11.6662 90.9967 11.6892 90.382 11.6892H88.5176V7.70762H90.4136C90.8732 7.70762 91.2179 7.73347 91.2179 6.55277V3.14858C91.2179 1.90756 92.2234 0.9021 93.4644 0.9021C94.7055 0.9021 95.7109 1.90756 95.7109 3.14858V6.55277C95.7109 7.857 96.1073 7.70762 96.7106 7.70762H100.077V11.6892H96.6963C96.0039 11.6892 95.7138 11.5571 95.7138 12.8642V22.4706C95.7138 23.2779 95.8976 23.7203 96.3918 23.8467H100.077V24.1741L100.054 24.1425C100.069 24.3695 99.9396 25.8518 99.9223 26.0816C99.8103 27.5151 99.0031 27.7421 97.4748 27.7421H95.573L95.5673 27.7335Z" fill="#C80E43"/>
<path fill-rule="evenodd" clip-rule="evenodd" d="M107.59 19.3824C106.924 19.3824 106.593 18.9199 106.593 17.7795C106.593 17.0843 106.789 15.4324 107.59 15.4324H116.366C117.122 15.4324 116.972 14.9757 116.708 14.5476C115.616 12.6832 113.591 11.4307 111.276 11.4307C107.8 11.4307 104.984 14.2489 104.984 17.722C104.984 21.1951 107.803 24.0133 111.276 24.0133C112.58 24.0133 113.795 23.6169 114.801 22.936C114.976 22.8269 115.148 22.7033 115.315 22.5597C116.863 21.2239 116.45 21.2612 118.07 21.2612H121.192C119.739 25.3348 115.849 28.2477 111.279 28.2477C105.467 28.2477 100.753 23.5364 100.753 17.722C100.753 11.9076 105.464 7.19629 111.279 7.19629C116.636 7.19629 121.057 11.198 121.718 16.3776C122.014 18.6959 121.253 19.3796 118.923 19.3796H107.593L107.59 19.3824Z" fill="#C80E43"/>
<path fill-rule="evenodd" clip-rule="evenodd" d="M134.737 27.7364L130.893 20.8361C130.014 19.2446 128.943 19.0722 128.653 20.816C128.647 20.8447 128.633 20.8763 128.612 20.9108C128.601 20.9682 128.589 21.0286 128.575 21.086V27.7364H124.085V3.15151C124.085 1.91049 125.09 0.905029 126.331 0.905029C127.572 0.905029 128.578 1.91049 128.578 3.15151V11.4824C128.578 12.0024 128.96 13.3354 130.06 12.1777L133.427 8.33106C133.792 7.96909 134.855 7.70767 136.113 7.70767C137.67 7.70767 138.931 8.10986 138.931 8.60684C138.931 8.68728 138.9 8.76484 138.836 8.83666L133.979 14.1311L133.548 14.6022C133.134 15.1251 132.887 15.8777 133.855 17.4893L140.003 27.7393H134.74L134.737 27.7364Z" fill="#C80E43"/>
<path fill-rule="evenodd" clip-rule="evenodd" d="M38.4572 7.19922C34.8261 7.19922 31.8672 10.0691 31.7235 13.6658H31.7178V27.7393H36.2079V14.8062C36.1935 14.4902 36.2481 14.1139 36.4061 13.6686C36.8743 12.3673 38.1182 11.4365 39.5805 11.4365C41.0427 11.4365 42.2866 12.3673 42.7548 13.6686C42.887 14.0248 42.9502 14.3954 42.9531 14.789V27.7422H47.4431V14.8292C47.4173 14.4414 47.4948 14.0564 47.6414 13.6715C48.1096 12.3701 49.3535 11.4394 50.8157 11.4394C52.278 11.4394 53.5219 12.3701 53.9901 13.6715C54.105 14.0019 54.1883 14.3724 54.1883 14.8091V27.7422H58.6784V14.2346H58.6727C58.6755 14.1369 58.6784 14.0421 58.6784 13.9444C58.6784 10.2213 55.662 7.20496 51.939 7.20496C48.2159 7.20496 45.3489 10.0748 45.2053 13.6715H45.1938C45.0502 10.0777 42.0912 7.20496 38.4601 7.20496L38.4572 7.19922Z" fill="#C80E43"/>
<path fill-rule="evenodd" clip-rule="evenodd" d="M45.1968 13.7233C45.4841 13.7233 45.7139 13.956 45.7139 14.2404C45.7139 14.3065 45.6995 11.3734 45.6765 11.4308C45.6018 11.6233 45.4151 11.7583 45.1968 11.7583C44.9785 11.7583 44.7917 11.6233 44.717 11.4308C44.6941 11.3705 44.6797 14.3065 44.6797 14.2404C44.6797 13.9531 44.9124 13.7233 45.1968 13.7233Z" fill="#C80E43"/>
<path fill-rule="evenodd" clip-rule="evenodd" d="M77.6381 27.7364H73.148V14.9986C73.148 13.1371 71.6398 11.6261 69.7783 11.6261C67.9167 11.6261 66.4057 13.1342 66.4057 14.9986V15.0274V27.7364H62.042V15.217C62.042 15.148 62.042 15.0762 62.042 14.9958C62.042 14.9153 62.042 14.8435 62.0449 14.766V14.5591C62.1684 10.2012 65.383 7.19629 69.7811 7.19629H69.8127H69.8415C70.0627 7.19629 70.2839 7.20491 70.5022 7.22502C74.5413 7.53814 77.549 10.4741 77.6381 14.6166V14.8177C77.6381 14.878 77.6381 14.9383 77.6381 14.9958C77.6381 15.0504 77.6381 15.1049 77.6381 15.1538V27.7335V27.7364Z" fill="#C80E43"/>
<path fill-rule="evenodd" clip-rule="evenodd" d="M85.4979 3.15151V6.04436C85.0325 6.04436 83.9955 5.7973 83.2457 5.7973C82.4959 5.7973 81.4675 6.04436 81.0078 6.04436V3.15151C81.0078 1.91049 82.0133 0.905029 83.2543 0.905029C84.4953 0.905029 85.5008 1.91049 85.5008 3.15151H85.4979Z" fill="#C80E43"/>
<path fill-rule="evenodd" clip-rule="evenodd" d="M81.0078 7.70775C81.4675 7.70775 82.5016 7.46069 83.2457 7.46069C83.9897 7.46069 85.0325 7.70775 85.4979 7.70775V27.7365H81.0078V7.70775Z" fill="#C80E43"/>
<path fill-rule="evenodd" clip-rule="evenodd" d="M79.8731 36.7741V35.5704C79.8185 33.1889 80.87 32.0398 83.0302 32.1231C83.3893 32.1231 83.9581 32.1777 84.7338 32.2869C84.8717 32.3156 84.9665 32.33 85.0239 32.33V33.5336C84.277 33.4503 83.6105 33.4072 83.0302 33.4072C81.7835 33.3239 81.1888 34.045 81.2434 35.5675V36.7712C81.2147 38.3225 81.8093 39.0694 83.0302 39.0119C83.3606 39.0119 83.9438 38.9717 84.774 38.8884C84.886 38.8597 84.9665 38.8482 85.0239 38.8482V39.9686C84.3862 40.1093 83.7226 40.1783 83.0302 40.1783C80.87 40.2587 79.8185 39.1269 79.8731 36.7712V36.7741ZM91.2606 40.0117L90.4735 37.6847H88.1897L87.4428 40.0117H85.9892L88.566 32.2438H90.1862L92.7602 40.0117H91.2635H91.2606ZM89.3072 33.9904L88.5603 36.4006H90.0972L89.3072 33.9904ZM96.624 40.0117H94.3V32.2438H96.624C98.7585 32.1346 99.7812 32.8672 99.6979 34.4443C99.6979 35.1366 99.4479 35.6767 98.951 36.0645C99.5858 36.4236 99.9047 36.9924 99.9047 37.768C100.014 39.3481 98.9222 40.095 96.624 40.0117ZM96.9142 36.6477H95.6674V38.8511H96.6212C97.9771 38.9057 98.6149 38.5466 98.5344 37.7709C98.5603 36.9953 98.0202 36.6218 96.9142 36.6506V36.6477ZM96.624 33.5336H95.6703V35.4009H96.9171C97.9139 35.4584 98.3707 35.1395 98.2874 34.4472C98.3965 33.7836 97.845 33.4791 96.624 33.5336ZM102.987 32.2466V38.8511H106.391V40.0145H101.614V32.2466H102.984H102.987ZM112.798 32.2466V33.5336H109.307V35.4009H112.464V36.6879H109.307V38.8482H112.798V40.0117H107.937V32.2438H112.798V32.2466ZM114.717 38.311H116.087C116.116 39.0579 115.811 39.9312 115.173 40.9281H113.97C114.495 39.8766 114.745 39.0033 114.717 38.311ZM121.858 32.2466V40.0145H120.488V32.2466H121.858ZM125.274 34.4472V40.0117H123.944V32.2438H125.524L128.388 37.9347V32.2438H129.718V40.0117H128.138L125.274 34.4472ZM131.677 36.7741V35.5704C131.623 33.1889 132.674 32.0398 134.834 32.1231C135.193 32.1231 135.762 32.1777 136.538 32.2869C136.676 32.3156 136.771 32.33 136.828 32.33V33.5336C136.081 33.4503 135.415 33.4072 134.834 33.4072C133.588 33.3239 132.993 34.045 133.047 35.5675V36.7712C133.019 38.3225 133.613 39.0694 134.834 39.0119C135.165 39.0119 135.748 38.9717 136.578 38.8884C136.69 38.8597 136.771 38.8482 136.828 38.8482V39.9686C136.19 40.1093 135.527 40.1783 134.834 40.1783C132.674 40.2587 131.623 39.1269 131.677 36.7712V36.7741ZM139.781 38.311V40.0145H138.328V38.311H139.781Z" fill="#10537F"/>
</g>
<defs>
<clipPath id="clip0_473_231">
<rect width="140" height="40.9279" fill="white"/>
</clipPath>
</defs>
</svg>
